<!--?xml version="1.0" standalone="no"?-->
              <svg id="sw-js-blob-svg" viewBox="0 0 100 100" xmlns="http://www.w3.org/2000/svg" version="1.1">
                    <defs> 
                        <linearGradient id="sw-gradient" x1="0" x2="1" y1="1" y2="0">
                            <stop id="stop1" stop-color="rgba(242, 230, 224, 1)" offset="0%"></stop>
                            <stop id="stop2" stop-color="rgba(248.668, 174.524, 52.141, 1)" offset="100%"></stop>
                        </linearGradient>
                    </defs>
                <path fill="rgba(242, 230, 224, 1)" d="M29.1,-34.4C37.3,-27.9,43.1,-18.3,44.4,-8.2C45.8,1.8,42.5,12.3,36.6,19.7C30.6,27.1,21.8,31.4,13.3,33C4.7,34.6,-3.5,33.5,-12.7,31.6C-21.8,29.6,-31.8,26.9,-37.9,20.1C-44,13.2,-46.2,2.3,-43.9,-7.2C-41.5,-16.7,-34.6,-24.9,-26.5,-31.4C-18.5,-38,-9.2,-42.9,0.6,-43.6C10.5,-44.4,21,-40.9,29.1,-34.4Z" width="100%" height="100%" transform="translate(50 50)" stroke-width="0" style="transition: all 0.3s ease 0s;" stroke="url(#sw-gradient)"></path>
              </svg>