<svg viewBox="0 0 26 26" xml:space="preserve" xmlns="http://www.w3.org/2000/svg"><path d="M23.23 4H2.77C1.795 4 1 4.844 1 5.88v14.24C1 21.155 1.794 22 2.77 22h20.46c.976 0 1.77-.844 1.77-1.88V5.88C25 4.845 24.206 4 23.23 4zm-7.563 9L23.5 7.347v11.306L15.667 13zm7.562-7.5c.054 0 .108.032.155.08L13 13.076 2.616 5.581c.047-.049.101-.081.155-.081h20.458zM2.5 18.653V7.347L10.333 13 2.5 18.653zm.27 1.847c-.053 0-.107-.032-.154-.08l8.998-6.495.948.683c.022.017.048.023.072.037a.745.745 0 0 0 .365.105h.002a.745.745 0 0 0 .365-.105c.024-.014.05-.02.072-.037l.947-.683 9 6.494c-.048.049-.102.081-.156.081H2.771z" fill="#f7f7f7" class="fill-1d1d1b"></path></svg>