<svg width="90" height="107" viewBox="0 0 90 107" fill="none" xmlns="http://www.w3.org/2000/svg">
<path d="M9.52132 81C-5.97868 53 31.0213 2.5 74.5213 39.5" stroke="#F5F5F5"/>
<path d="M24.0213 99.5C19.5213 100 14.688 97 14.0213 95C13.3546 93 17.2304 90.2091 15.0213 88C14.0213 87 11.0213 89.5 10.5213 91C9.68798 89.3333 7.52132 85.3 5.52132 86.5C3.52132 87.7 5.68799 91 7.02132 92.5C6.02132 91.6667 3.72132 90.2 2.52132 91C1.02132 92 1.02132 94.5 5.02132 96C9.02132 97.5 0.52132 95.5 1.02132 98.5C1.54119 101.619 6.52132 100 11.5213 100C13.5213 101 16.5213 107.5 28.0213 105.5" stroke="#F5F5F5"/>
<ellipse cx="29.0213" cy="56" rx="2.5" ry="5" fill="#292929"/>
<ellipse cx="53.0213" cy="56" rx="2.5" ry="5" fill="#292929"/>
<path d="M33.5213 72C35.8546 75.1667 42.4213 79.6 50.0213 72" stroke="black"/>
<ellipse cx="26.5213" cy="65" rx="4" ry="3" fill="#D38339"/>
<ellipse cx="58.5213" cy="64" rx="4" ry="3" fill="#D38339"/>
<path d="M54.2208 22.3939C54.644 22.0516 57.706 20.9163 61.7422 19.5C62.7422 21.3453 62.8022 27.5 62.3022 32C61.8022 36.5 32.3022 35 26.8022 33.5C21.7014 32.1089 22.6213 30.7178 22.7817 30.922C22.5782 29.6828 20.9839 16.0606 23.8022 17C26.5287 17.9089 51.5576 21.7087 54.2208 22.3939Z" fill="#F5F5F5"/>
<path d="M14.8022 28.5L17.3022 35C15.9688 35.5 13.2022 36.4 12.8022 36C12.4022 35.6 13.6355 30.1667 14.3022 27.5C14.1355 26.6667 13.8022 24.1 13.8022 20.5C13.8022 16 19.3022 17 18.8022 16C18.3022 15 3.30215 12.5 5.80215 11.5C8.30215 10.5 28.8022 6.5 33.3022 4C37.8022 1.5 41.3022 1 41.8022 1C42.3022 1 57.3022 6 59.3022 6.5C61.3022 7 83.8022 11.5 84.8022 11.5C85.8022 11.5 51.8022 22.5 54.3022 22.5C56.8022 22.5 26.8022 18 23.8022 17C20.8022 16 22.8022 31.5 22.8022 31C22.8022 30.5 21.3022 32 26.8022 33.5C32.3022 35 61.8022 36.5 62.3022 32C62.8022 27.5 62.7422 21.3453 61.7422 19.5" stroke="#F5F5F5"/>
<path d="M34.7683 102.935C34.1787 102.981 33.324 103.003 32.204 103L32.1131 100.029L31.5213 94.5979L34.847 94.3396C35.968 94.2526 36.8708 94.5133 37.5553 95.1218C38.2398 95.7304 38.6295 96.6191 38.7245 97.7881C38.8446 99.2655 38.5496 100.469 37.8396 101.398C37.129 102.319 36.1052 102.832 34.7683 102.935ZM34.5054 95.6895C33.9574 95.7321 33.5716 95.7661 33.348 95.7917L33.5411 99.71L33.7886 101.676C34.49 101.67 34.9612 101.658 35.202 101.64C35.858 101.589 36.3517 101.289 36.6832 100.74C37.0229 100.191 37.1526 99.4214 37.0721 98.431C36.9916 97.4407 36.7451 96.7205 36.3325 96.2706C35.9282 95.82 35.3192 95.6263 34.5054 95.6895Z" fill="#F5F5F5"/>
<path d="M39.7542 96.3608L41.1684 95.7494C41.3722 96.3484 41.5448 96.9206 41.6861 97.4657C42.1895 96.1909 42.7675 95.4872 43.42 95.3548L43.6816 97.2478C43.2086 97.3438 42.8427 97.4639 42.584 97.6078C42.3318 97.7422 42.0892 97.9619 41.8563 98.2671L41.9477 98.6976L42.6792 101.481L41.1034 102.113L40.6329 99.1766C40.3734 98.1148 40.0805 97.1762 39.7542 96.3608Z" fill="#F5F5F5"/>
<path d="M45.9175 100.237C45.8429 99.9865 45.8696 99.7414 45.9977 99.5014C46.1313 99.2513 46.3301 99.0886 46.594 99.0134C47.1139 98.8653 47.4507 99.0493 47.6045 99.5653C47.693 99.8624 47.6705 100.136 47.5368 100.386C47.4111 100.634 47.2203 100.794 46.9644 100.867C46.7165 100.938 46.4973 100.916 46.3067 100.8C46.1218 100.675 45.9921 100.487 45.9175 100.237Z" fill="#F5F5F5"/>
<path d="M55.4317 97.9041C54.5926 98.2838 53.7231 98.2601 52.8231 97.8328C51.9232 97.4055 51.237 96.6931 50.7646 95.6954C50.1872 94.4761 50.0448 93.2933 50.3372 92.1469C50.6372 90.9971 51.2899 90.1947 52.2953 89.7397C52.6884 89.5619 53.0705 89.4383 53.4416 89.3691C53.8168 89.289 54.0954 89.2571 54.2775 89.2734L54.5394 89.303L54.4979 91.1927C54.2541 91.1236 53.9437 91.0981 53.5667 91.1161C53.1862 91.1268 52.8675 91.1903 52.6104 91.3066C52.0889 91.5426 51.7691 91.9431 51.651 92.508C51.5406 93.0695 51.6708 93.7419 52.0417 94.5252C52.4092 95.3012 52.8744 95.8669 53.4374 96.2223C53.9969 96.5703 54.5563 96.6177 55.1157 96.3646C55.4786 96.2004 55.7549 95.9407 55.9447 95.5856C56.1346 95.2305 56.2025 94.8408 56.1484 94.4166L57.3415 94.5227C57.4 95.2859 57.2597 95.9686 56.9207 96.5707C56.5781 97.1655 56.0818 97.6099 55.4317 97.9041Z" fill="#F5F5F5"/>
<path d="M56.5386 90.6535L57.6597 89.6121C58.0579 90.1091 58.4175 90.591 58.7383 91.0578C58.7732 89.6917 59.075 88.8388 59.6437 88.4993L60.5422 90.1957C60.1299 90.4418 59.8267 90.6753 59.6328 90.896C59.4416 91.1055 59.2889 91.3923 59.1746 91.7563L59.409 92.1316L61.0566 94.5115L59.7904 95.6251L58.336 93.0154C57.7259 92.1011 57.1267 91.3138 56.5386 90.6535Z" fill="#F5F5F5"/>
<path d="M65.4297 92.068C65.0395 92.3601 64.6251 92.4806 64.1864 92.4295C63.7492 92.367 63.3711 92.1321 63.052 91.7248C62.7279 91.311 62.6412 90.8119 62.7918 90.2273C62.9373 89.6363 63.2846 89.1353 63.8335 88.7243L64.5081 88.2193L64.3789 88.0545C64.1308 87.7377 63.895 87.5706 63.6715 87.5532C63.4481 87.5359 63.1545 87.6634 62.7908 87.9357C62.6387 88.0495 62.4821 88.218 62.3211 88.4411C62.1617 88.6528 62.0036 88.9198 61.847 89.2422L60.9592 88.6914C61.0916 88.2846 61.2988 87.8526 61.5807 87.3954C61.8692 86.9332 62.1457 86.6032 62.4102 86.4051C63.4485 85.6278 64.3526 85.7305 65.1224 86.7132L66.6114 88.6141C66.895 88.9761 67.3272 89.2936 67.9082 89.5664L67.1985 90.79C66.79 90.6034 66.4499 90.417 66.1781 90.2308C66.2347 91.0397 65.9853 91.6521 65.4297 92.068ZM65.0715 90.7669C65.336 90.5688 65.5331 90.211 65.6628 89.6934L65.1538 89.0437C64.7425 89.2285 64.4277 89.4026 64.2095 89.566C63.7928 89.8779 63.7263 90.2149 64.0099 90.5769C64.1568 90.7644 64.3287 90.8768 64.5257 90.9139C64.7176 90.9446 64.8996 90.8956 65.0715 90.7669Z" fill="#F5F5F5"/>
<path d="M70.1386 84.0882C69.7241 83.699 69.4131 83.4747 69.2057 83.4154C68.9983 83.3562 68.7677 83.4557 68.5137 83.7141C68.2598 83.9725 68.0764 84.3649 67.9635 84.8912L68.6213 85.5089L70.8341 87.4006L69.8994 88.7926L67.8137 86.6306C66.9856 85.8981 66.2013 85.2857 65.4606 84.7935L66.2737 83.5076C66.6625 83.7937 67.0308 84.083 67.3785 84.3757C67.3449 84.1748 67.3259 83.9649 67.3214 83.7462C67.3109 83.5218 67.3519 83.2215 67.4443 82.8453C67.5307 82.4635 67.6951 82.1493 67.9375 81.9026C68.1798 81.6559 68.4658 81.5236 68.7953 81.5056C69.1249 81.4876 69.4539 81.5877 69.7824 81.8059C69.6547 80.7487 69.836 79.9705 70.3265 79.4713C70.6324 79.1601 70.9829 79.015 71.378 79.036C71.7672 79.0514 72.145 79.2312 72.5114 79.5753L73.4687 80.5759L75.7265 82.5099L74.7832 83.9107L72.5623 81.6217C72.1478 81.2325 71.8368 81.0082 71.6294 80.9489C71.422 80.8896 71.1942 80.9863 70.9461 81.2388C70.698 81.4913 70.5172 81.8692 70.4038 82.3725L71.045 83.0424L73.3028 84.9764L72.3595 86.3772L70.1386 84.0882Z" fill="#F5F5F5"/>
<path d="M77.2181 76.8937C78.1938 76.6738 78.8694 76.2704 79.2447 75.6835C79.4391 75.3797 79.523 75.0948 79.4966 74.829C79.4675 74.5519 79.3399 74.3443 79.1139 74.2061C78.8808 74.0636 78.6159 74.0554 78.3192 74.1814C78.0155 74.303 77.702 74.4859 77.3788 74.7302C77.06 74.9675 76.727 75.1962 76.38 75.4162C76.0259 75.6319 75.6369 75.7639 75.2131 75.8122C74.7892 75.8605 74.376 75.7615 73.9734 75.5154C73.3378 75.1269 72.956 74.5334 72.8281 73.7349C72.6932 72.9321 72.8532 72.1751 73.308 71.4639C73.5156 71.1394 73.7519 70.8468 74.0168 70.5862C74.2817 70.3256 74.5718 70.0947 74.8871 69.8937L75.9834 71.5434C75.7044 71.6418 75.3931 71.8213 75.0496 72.0819C74.7034 72.3313 74.4486 72.5837 74.2852 72.8392C74.1262 73.0878 74.0595 73.3303 74.0851 73.5668C74.108 73.7921 74.2218 73.9674 74.4267 74.0926C74.6315 74.2178 74.8858 74.2195 75.1896 74.0979C75.4863 73.9719 75.794 73.7903 76.1128 73.553C76.436 73.3087 76.7712 73.0766 77.1182 72.8566C77.4626 72.6253 77.8467 72.4855 78.2706 72.4373C78.6944 72.389 79.1076 72.4879 79.5102 72.734C80.1741 73.1398 80.5912 73.7549 80.7615 74.5793C80.9246 75.3994 80.7854 76.1547 80.3438 76.8451C80.0126 77.363 79.5918 77.7444 79.0814 77.9895C78.6372 78.2078 78.284 78.3376 78.0217 78.379L77.8456 78.401L77.2181 76.8937Z" fill="#F5F5F5"/>
<path d="M79.4572 68.5014C79.299 68.8246 79.297 69.1306 79.4512 69.4193C79.5978 69.7046 79.9153 69.9614 80.4038 70.1899C80.8922 70.4184 81.3298 70.5147 81.7167 70.479C82.0996 70.4325 82.3755 70.2366 82.5445 69.8913C82.6308 69.715 82.659 69.516 82.6289 69.2944C82.5989 69.0727 82.5491 68.8914 82.4796 68.7505L82.3585 68.545L83.2143 68.2682C83.2411 68.3078 83.2793 68.3618 83.3289 68.4302C83.3822 68.4912 83.4629 68.6282 83.571 68.8413C83.6827 69.047 83.7702 69.2549 83.8335 69.4651C83.893 69.6644 83.9233 69.9043 83.9246 70.1848C83.9183 70.4617 83.8541 70.725 83.7318 70.9748C83.4622 71.5257 83.0137 71.8666 82.3863 71.9975C81.759 72.1283 81.0771 72.0215 80.3408 71.677C79.424 71.2482 78.7477 70.6114 78.3116 69.7665C77.8756 68.9216 77.8284 68.1502 78.1699 67.4524C78.2742 67.2393 78.4123 67.0421 78.5842 66.8607C78.7485 66.6758 78.9523 66.5048 79.1954 66.3477L80.2042 67.7675C79.8644 67.9335 79.6154 68.1781 79.4572 68.5014Z" fill="#F5F5F5"/>
<path d="M83.5457 62.9194C83.0022 62.7367 82.6236 62.6611 82.4099 62.6927C82.1962 62.7242 82.0298 62.9093 81.9106 63.2482C81.7914 63.587 81.7939 64.0184 81.9179 64.5423L82.7805 64.8322L85.6019 65.6385L85.3489 67.2972L82.5263 66.1935L76.4987 64.3225L76.7598 62.6407L79.7674 63.8195L81.1499 64.2842C81.0329 64.1157 80.9254 63.9332 80.8272 63.7365C80.729 63.5399 80.6395 63.2558 80.5588 62.8842C80.478 62.5126 80.4986 62.1536 80.6205 61.8071C80.7451 61.4528 80.9911 61.204 81.3587 61.0606C81.7184 60.9145 82.1385 60.9222 82.619 61.0838L83.918 61.5979L86.7985 62.424L86.5455 64.0827L83.5457 62.9194Z" fill="#F5F5F5"/>
<path d="M85.0811 60.096C84.0372 59.8839 83.2108 59.4291 82.6019 58.7315C81.993 58.0339 81.7665 57.3183 81.9224 56.5848C82.08 55.8433 82.4467 55.319 83.0225 55.0118C83.6 54.6966 84.2924 54.621 85.0998 54.785C86.1764 55.0038 87.0167 55.4531 87.6209 56.1331C88.2186 56.8035 88.4318 57.5413 88.2606 58.3466C88.12 59.0083 87.7502 59.5071 87.1513 59.8429C86.546 60.169 85.8559 60.2534 85.0811 60.096ZM85.4512 56.2537C84.2687 56.0135 83.5935 56.288 83.4257 57.0774C83.2511 57.8986 83.7184 58.4218 84.8276 58.6472C85.4066 58.7648 85.8839 58.7412 86.2592 58.5762C86.6346 58.4113 86.8621 58.1415 86.9418 57.7667C87.0232 57.384 86.9374 57.0672 86.6844 56.8162C86.425 56.5555 86.014 56.3681 85.4512 56.2537Z" fill="#F5F5F5"/>
<path d="M86.4201 53.7208C85.3577 53.6319 84.4817 53.2766 83.7921 52.6549C83.1024 52.0333 82.7903 51.3492 82.8557 50.6027C82.9217 49.8482 83.2219 49.2848 83.7561 48.9127C84.291 48.5325 84.9693 48.3767 85.791 48.4455C86.8865 48.5372 87.7757 48.8854 88.4584 49.4901C89.1336 50.0861 89.4353 50.7938 89.3636 51.6132C89.3046 52.2867 88.9983 52.825 88.4446 53.2282C87.8834 53.6225 87.2085 53.7867 86.4201 53.7208ZM86.319 49.8628C85.1155 49.7621 84.4786 50.1133 84.4083 50.9166C84.3351 51.7523 84.8629 52.2174 85.9917 52.3118C86.5809 52.3611 87.0519 52.282 87.4044 52.0745C87.757 51.867 87.95 51.5726 87.9834 51.1912C88.0175 50.8018 87.8937 50.4972 87.612 50.2775C87.3226 50.0489 86.8917 49.9107 86.319 49.8628Z" fill="#F5F5F5"/>
<path d="M79.8328 45.0719L86.2565 45.1646L89.1912 45L89.5213 46.6457L86.4836 46.5304L80.1631 46.7421L79.8328 45.0719Z" fill="#F5F5F5"/>
</svg>
